G04 Layer_Color=16711935*
%FSLAX43Y43*%
%MOMM*%
G71*
G01*
G75*
%ADD20C,0.100*%
D20*
X4435Y5783D02*
G03*
X4840Y4881I1206J0D01*
G01*
X7840D02*
G03*
X8245Y5783I-801J902D01*
G01*
Y9400D02*
G03*
X8083Y10003I-1206J0D01*
G01*
X4597Y10003D02*
G03*
X4435Y9400I1044J-603D01*
G01*
X14560Y10130D02*
G03*
X13960Y9530I0J-600D01*
G01*
Y6990D02*
G03*
X14560Y6390I600J0D01*
G01*
X14094Y11588D02*
G03*
X13900Y11866I-1694J-978D01*
G01*
X13900Y3999D02*
G03*
X15055Y5783I-801J1784D01*
G01*
X10240Y6390D02*
G03*
X10840Y6990I0J600D01*
G01*
Y9530D02*
G03*
X10240Y10130I-600J0D01*
G01*
X10900Y11866D02*
G03*
X10706Y11588I1500J-1256D01*
G01*
X9745Y5783D02*
G03*
X10900Y3999I1956J0D01*
G01*
X4435Y5783D02*
Y9400D01*
X8245Y5783D02*
Y9400D01*
X4840Y3010D02*
Y4881D01*
X7840Y13510D02*
X10900D01*
X13900D02*
X16555D01*
Y3010D02*
Y13510D01*
X13900Y3010D02*
X16555D01*
X7840D02*
X10900D01*
X2935Y3010D02*
Y13510D01*
X4840D01*
X7840Y10424D02*
Y13510D01*
Y10424D02*
X8083Y10003D01*
X13960Y6990D02*
Y9530D01*
X13900Y11866D02*
Y13510D01*
X14560Y10130D02*
X14737D01*
X14094Y11588D02*
X14863Y10257D01*
X14737Y10130D02*
X14863Y10257D01*
X14560Y6390D02*
X14855D01*
X15055Y5783D02*
Y6190D01*
X13900Y3010D02*
Y3999D01*
X14855Y6390D02*
X15055Y6190D01*
X9745D02*
X9945Y6390D01*
X9745Y5783D02*
Y6190D01*
X9945Y6390D02*
X10240D01*
X9937Y10257D02*
X10063Y10130D01*
X9937Y10257D02*
X10706Y11588D01*
X10063Y10130D02*
X10240D01*
X10840Y6990D02*
Y9530D01*
X10900Y11866D02*
Y13510D01*
X7840Y3010D02*
Y4881D01*
X4597Y10003D02*
X4840Y10424D01*
Y13510D01*
X10900Y3010D02*
Y3999D01*
X2935Y3010D02*
X4840D01*
X0Y15500D02*
X1000Y16500D01*
X18500D01*
X19500Y15500D01*
X0Y1000D02*
Y15500D01*
Y1000D02*
X1000Y0D01*
X18500D01*
X19500Y1000D01*
Y15500D01*
M02*
