G04 Layer_Color=13512912*
%FSLAX43Y43*%
%MOMM*%
G71*
G01*
G75*
%ADD15C,1.210*%
%ADD16C,1.190*%
%ADD17C,1.410*%
%ADD18C,1.310*%
%ADD19C,0.560*%
G36*
X11410Y6346D02*
X11414Y6346D01*
X11509Y6334D01*
X11514Y6333D01*
X11518Y6333D01*
X11563Y6319D01*
X11588Y6312D01*
X11638Y6301D01*
X11689Y6294D01*
X11740Y6290D01*
X11765Y6289D01*
X12290D01*
X12300Y6288D01*
X12309Y6286D01*
X12318Y6281D01*
X12326Y6275D01*
X12332Y6267D01*
X12336Y6258D01*
X12339Y6249D01*
X12340Y6239D01*
Y4777D01*
X12339Y4767D01*
X12336Y4758D01*
X12332Y4749D01*
X12326Y4741D01*
X12318Y4735D01*
X12309Y4731D01*
X12300Y4728D01*
X12290Y4727D01*
X11602D01*
X11592Y4728D01*
X11398Y4766D01*
X11388Y4769D01*
X11205Y4845D01*
X11205Y4845D01*
X11202Y4847D01*
X11197Y4850D01*
X11197Y4850D01*
X11032Y4960D01*
X11032Y4960D01*
X11024Y4966D01*
X10884Y5106D01*
X10878Y5114D01*
X10768Y5279D01*
X10768Y5279D01*
X10763Y5287D01*
X10687Y5470D01*
X10684Y5480D01*
X10646Y5674D01*
X10645Y5684D01*
Y5783D01*
Y6239D01*
X10646Y6249D01*
X10649Y6258D01*
X10653Y6267D01*
X10659Y6275D01*
X10667Y6281D01*
X10676Y6286D01*
X10685Y6288D01*
X10695Y6289D01*
X11089D01*
X11098Y6290D01*
X11115Y6291D01*
X11131Y6294D01*
X11147Y6299D01*
X11155Y6302D01*
X11199Y6319D01*
X11203Y6320D01*
X11207Y6322D01*
X11301Y6342D01*
X11305Y6342D01*
X11310Y6343D01*
X11406Y6347D01*
X11410Y6346D01*
D02*
G37*
G36*
X13490Y6343D02*
X13495Y6342D01*
X13499Y6342D01*
X13593Y6322D01*
X13597Y6320D01*
X13601Y6319D01*
X13645Y6302D01*
X13653Y6299D01*
X13669Y6294D01*
X13685Y6291D01*
X13702Y6290D01*
X13711Y6289D01*
X14105D01*
X14115Y6288D01*
X14124Y6286D01*
X14133Y6281D01*
X14141Y6275D01*
X14147Y6267D01*
X14151Y6258D01*
X14154Y6249D01*
X14155Y6239D01*
Y5783D01*
Y5684D01*
X14154Y5674D01*
X14116Y5480D01*
X14113Y5470D01*
X14113Y5470D01*
X14037Y5287D01*
X14037Y5287D01*
X14035Y5284D01*
X14032Y5279D01*
X14032Y5279D01*
X13922Y5114D01*
X13922Y5114D01*
X13916Y5106D01*
X13776Y4966D01*
X13768Y4960D01*
X13603Y4850D01*
X13603Y4850D01*
X13595Y4845D01*
X13412Y4769D01*
X13402Y4766D01*
X13208Y4728D01*
X13198Y4727D01*
X12510D01*
X12500Y4728D01*
X12491Y4731D01*
X12482Y4735D01*
X12474Y4741D01*
X12468Y4749D01*
X12464Y4758D01*
X12461Y4767D01*
X12460Y4777D01*
Y6239D01*
X12461Y6249D01*
X12464Y6258D01*
X12468Y6267D01*
X12474Y6275D01*
X12482Y6281D01*
X12491Y6286D01*
X12500Y6288D01*
X12510Y6289D01*
X13035D01*
X13060Y6290D01*
X13111Y6294D01*
X13162Y6301D01*
X13212Y6312D01*
X13237Y6319D01*
X13282Y6333D01*
X13286Y6333D01*
X13291Y6334D01*
X13386Y6346D01*
X13390Y6346D01*
X13394Y6347D01*
X13490Y6343D01*
D02*
G37*
G36*
X12534Y11666D02*
X12536Y11666D01*
X12539Y11665D01*
X12542Y11665D01*
X12544Y11664D01*
X12545Y11664D01*
X12801Y11595D01*
X12803Y11595D01*
X12804Y11595D01*
X12807Y11593D01*
X12811Y11592D01*
X12812Y11591D01*
X12813Y11590D01*
X13043Y11458D01*
X13044Y11457D01*
X13046Y11456D01*
X13048Y11454D01*
X13051Y11452D01*
X13052Y11451D01*
X13053Y11450D01*
X13241Y11263D01*
X13242Y11261D01*
X13243Y11260D01*
X13245Y11258D01*
X13247Y11255D01*
X13248Y11254D01*
X13249Y11252D01*
X13315Y11138D01*
X13315Y11138D01*
X13770Y10350D01*
X13771Y10347D01*
X13773Y10344D01*
X13773Y10343D01*
X13774Y10341D01*
X13775Y10338D01*
X13776Y10335D01*
X13776Y10333D01*
X13776Y10331D01*
X13776Y10328D01*
X13777Y10325D01*
X13777Y10323D01*
X13777Y10322D01*
X13776Y10318D01*
X13776Y10315D01*
X13775Y10314D01*
X13775Y10312D01*
X13774Y10309D01*
X13773Y10306D01*
X13772Y10304D01*
X13772Y10303D01*
X13770Y10300D01*
X13768Y10297D01*
X13767Y10296D01*
X13766Y10294D01*
X13764Y10292D01*
X13762Y10289D01*
X13761Y10288D01*
X13760Y10287D01*
X13757Y10285D01*
X13754Y10283D01*
X13753Y10282D01*
X13752Y10281D01*
X13749Y10280D01*
X13746Y10278D01*
X13744Y10278D01*
X13743Y10277D01*
X13739Y10277D01*
X13736Y10276D01*
X13735Y10275D01*
X13733Y10275D01*
X13730Y10275D01*
X13726Y10275D01*
X13036D01*
X12993Y10273D01*
X12906Y10263D01*
X12822Y10244D01*
X12740Y10214D01*
X12701Y10196D01*
X12637Y10163D01*
X12636Y10163D01*
X12635Y10163D01*
X12631Y10161D01*
X12628Y10160D01*
X12627Y10160D01*
X12626Y10160D01*
X12484Y10126D01*
X12483Y10126D01*
X12483Y10126D01*
X12479Y10125D01*
X12475Y10125D01*
X12474Y10125D01*
X12473Y10125D01*
X12327D01*
X12326Y10125D01*
X12325Y10125D01*
X12321Y10125D01*
X12317Y10126D01*
X12317Y10126D01*
X12316Y10126D01*
X12174Y10160D01*
X12173Y10160D01*
X12172Y10160D01*
X12169Y10161D01*
X12165Y10163D01*
X12164Y10163D01*
X12163Y10163D01*
X12099Y10196D01*
X12060Y10214D01*
X11978Y10244D01*
X11894Y10263D01*
X11807Y10273D01*
X11764Y10275D01*
X11074Y10275D01*
X11070Y10275D01*
X11067Y10275D01*
X11065Y10275D01*
X11064Y10276D01*
X11061Y10277D01*
X11057Y10277D01*
X11056Y10278D01*
X11054Y10278D01*
X11051Y10280D01*
X11048Y10281D01*
X11047Y10282D01*
X11046Y10283D01*
X11043Y10285D01*
X11040Y10287D01*
X11039Y10288D01*
X11038Y10289D01*
X11036Y10292D01*
X11034Y10294D01*
X11033Y10296D01*
X11032Y10297D01*
X11030Y10300D01*
X11028Y10303D01*
X11028Y10304D01*
X11027Y10306D01*
X11026Y10309D01*
X11025Y10312D01*
X11025Y10314D01*
X11024Y10315D01*
X11024Y10318D01*
X11023Y10322D01*
X11023Y10323D01*
X11023Y10325D01*
X11024Y10328D01*
X11024Y10331D01*
X11024Y10333D01*
X11024Y10335D01*
X11025Y10338D01*
X11026Y10341D01*
X11027Y10343D01*
X11027Y10344D01*
X11029Y10347D01*
X11030Y10350D01*
X11485Y11138D01*
X11485Y11138D01*
X11551Y11252D01*
X11552Y11254D01*
X11553Y11255D01*
X11555Y11258D01*
X11557Y11260D01*
X11558Y11261D01*
X11559Y11263D01*
X11747Y11450D01*
X11748Y11451D01*
X11749Y11452D01*
X11752Y11454D01*
X11754Y11456D01*
X11756Y11457D01*
X11757Y11458D01*
X11987Y11590D01*
X11988Y11591D01*
X11989Y11592D01*
X11993Y11593D01*
X11996Y11595D01*
X11997Y11595D01*
X11999Y11595D01*
X12255Y11664D01*
X12256Y11664D01*
X12258Y11665D01*
X12261Y11665D01*
X12264Y11666D01*
X12266Y11666D01*
X12268Y11666D01*
X12532D01*
X12534Y11666D01*
D02*
G37*
D15*
X5705Y6990D02*
D03*
X6975D02*
D03*
X11765D02*
D03*
X13035D02*
D03*
D16*
X5705Y8260D02*
D03*
Y9530D02*
D03*
X6975Y8260D02*
D03*
Y9530D02*
D03*
X11765Y8260D02*
D03*
Y9530D02*
D03*
X13035Y8260D02*
D03*
Y9530D02*
D03*
D17*
X6340Y10800D02*
D03*
X12400D02*
D03*
D18*
X7356Y5720D02*
D03*
X5324D02*
D03*
X13416D02*
D03*
X11384D02*
D03*
D19*
X5490Y11910D02*
D03*
X7190D02*
D03*
X6340Y12110D02*
D03*
Y4210D02*
D03*
X7190Y4210D02*
D03*
X5490D02*
D03*
X11550Y3510D02*
D03*
X13250D02*
D03*
X12400Y3510D02*
D03*
Y12910D02*
D03*
X13250Y12710D02*
D03*
X11550D02*
D03*
M02*
