G04 Layer_Physical_Order=1*
G04 Layer_Color=255*
%FSLAX43Y43*%
%MOMM*%
G71*
G01*
G75*
%ADD10C,1.050*%
%ADD11C,1.250*%
%ADD12C,1.150*%
%ADD13C,0.400*%
G36*
X5705Y6465D02*
X5685D01*
X5644Y6468D01*
X5604Y6474D01*
X5564Y6484D01*
X5553Y6488D01*
X5489Y6504D01*
X5357Y6520D01*
X5224Y6515D01*
X5093Y6487D01*
X5030Y6465D01*
X4635Y6465D01*
Y7515D01*
X5705D01*
Y6465D01*
D02*
G37*
G36*
X11503Y6285D02*
X11549Y6271D01*
X11576Y6263D01*
X11629Y6252D01*
X11683Y6244D01*
X11738Y6240D01*
X11765Y6239D01*
X12290D01*
Y4777D01*
X11602D01*
X11408Y4816D01*
X11224Y4891D01*
X11060Y5002D01*
X10920Y5142D01*
X10809Y5306D01*
X10734Y5490D01*
X10695Y5684D01*
Y5783D01*
Y6239D01*
X11090D01*
X11101Y6239D01*
X11122Y6241D01*
X11143Y6245D01*
X11163Y6251D01*
X11173Y6255D01*
X11218Y6273D01*
X11312Y6292D01*
X11408Y6297D01*
X11503Y6285D01*
D02*
G37*
G36*
X5443D02*
X5489Y6271D01*
X5516Y6263D01*
X5569Y6252D01*
X5623Y6244D01*
X5678Y6240D01*
X5705Y6239D01*
X6230D01*
Y4777D01*
X5542D01*
X5348Y4816D01*
X5164Y4891D01*
X5000Y5002D01*
X4860Y5142D01*
X4749Y5306D01*
X4674Y5490D01*
X4635Y5684D01*
Y5783D01*
Y6239D01*
X5030D01*
X5041Y6239D01*
X5062Y6241D01*
X5083Y6245D01*
X5103Y6251D01*
X5113Y6255D01*
X5158Y6273D01*
X5252Y6292D01*
X5348Y6297D01*
X5443Y6285D01*
D02*
G37*
G36*
X7428Y6292D02*
X7522Y6273D01*
X7567Y6255D01*
X7567Y6255D01*
X7577Y6251D01*
X7597Y6245D01*
X7618Y6241D01*
X7639Y6239D01*
X7650Y6239D01*
X8045D01*
Y5783D01*
Y5684D01*
X8006Y5490D01*
X7931Y5306D01*
X7820Y5142D01*
X7680Y5002D01*
X7516Y4891D01*
X7332Y4816D01*
X7138Y4777D01*
X6450D01*
Y6239D01*
X6975D01*
X7002Y6240D01*
X7057Y6244D01*
X7111Y6252D01*
X7164Y6263D01*
X7191Y6271D01*
X7191Y6271D01*
X7237Y6285D01*
X7332Y6297D01*
X7428Y6292D01*
D02*
G37*
G36*
X13488D02*
X13582Y6273D01*
X13627Y6255D01*
X13627Y6255D01*
X13637Y6251D01*
X13657Y6245D01*
X13678Y6241D01*
X13699Y6239D01*
X13710Y6239D01*
X14105D01*
Y5783D01*
Y5684D01*
X14066Y5490D01*
X13991Y5306D01*
X13880Y5142D01*
X13740Y5002D01*
X13576Y4891D01*
X13392Y4816D01*
X13198Y4777D01*
X12510D01*
Y6239D01*
X13035D01*
X13062Y6240D01*
X13117Y6244D01*
X13171Y6252D01*
X13224Y6263D01*
X13251Y6271D01*
X13251Y6271D01*
X13297Y6285D01*
X13392Y6297D01*
X13488Y6292D01*
D02*
G37*
G36*
X8045Y6465D02*
X7650Y6465D01*
X7587Y6487D01*
X7456Y6515D01*
X7323Y6520D01*
X7191Y6504D01*
X7127Y6488D01*
X7116Y6484D01*
X7076Y6474D01*
X7036Y6468D01*
X6995Y6465D01*
X6975D01*
Y7515D01*
X8045D01*
Y6465D01*
D02*
G37*
G36*
X7910Y9903D02*
X7943Y9846D01*
X7994Y9724D01*
X8028Y9596D01*
X8045Y9466D01*
Y9400D01*
Y9005D01*
X6975D01*
Y10055D01*
X7822D01*
X7910Y9903D01*
D02*
G37*
G36*
X6728Y11547D02*
X6958Y11415D01*
X7145Y11227D01*
X7211Y11113D01*
Y11113D01*
X7666Y10325D01*
X6975Y10325D01*
X6929Y10324D01*
X6837Y10313D01*
X6748Y10292D01*
X6661Y10260D01*
X6620Y10241D01*
X6554Y10208D01*
X6413Y10175D01*
X6267D01*
X6126Y10208D01*
X6060Y10241D01*
X6060Y10241D01*
X6019Y10260D01*
X5932Y10292D01*
X5843Y10313D01*
X5751Y10324D01*
X5705Y10325D01*
Y10325D01*
X5014D01*
X5469Y11113D01*
X5535Y11227D01*
X5722Y11415D01*
X5952Y11547D01*
X6208Y11616D01*
X6472D01*
X6728Y11547D01*
D02*
G37*
G36*
X12788D02*
X13018Y11415D01*
X13205Y11227D01*
X13271Y11113D01*
Y11113D01*
X13726Y10325D01*
X13035Y10325D01*
X12989Y10324D01*
X12897Y10313D01*
X12808Y10292D01*
X12721Y10260D01*
X12679Y10241D01*
X12614Y10208D01*
X12473Y10175D01*
X12327D01*
X12186Y10208D01*
X12120Y10241D01*
X12120Y10241D01*
X12079Y10260D01*
X11992Y10292D01*
X11903Y10313D01*
X11811Y10324D01*
X11765Y10325D01*
Y10325D01*
X11074D01*
X11529Y11113D01*
X11595Y11227D01*
X11782Y11415D01*
X12012Y11547D01*
X12268Y11616D01*
X12532D01*
X12788Y11547D01*
D02*
G37*
G36*
X5705Y7735D02*
X4635D01*
Y8785D01*
X5705D01*
Y7735D01*
D02*
G37*
G36*
X8045D02*
X6975D01*
Y8785D01*
X8045D01*
Y7735D01*
D02*
G37*
G36*
X5705Y9005D02*
X4635D01*
X4635Y9400D01*
Y9466D01*
X4652Y9596D01*
X4686Y9724D01*
X4737Y9846D01*
X4770Y9903D01*
X4858Y10055D01*
X5705D01*
Y9005D01*
D02*
G37*
%LPC*%
G36*
X5545Y6490D02*
X5553Y6488D01*
X5554Y6487D01*
Y6487D01*
X5545Y6490D01*
D02*
G37*
G36*
X7135D02*
X7126Y6487D01*
X7126Y6487D01*
X7127Y6488D01*
X7135Y6490D01*
D02*
G37*
%LPD*%
D10*
X5705Y6990D02*
D03*
Y8260D02*
D03*
Y9530D02*
D03*
X6975Y6990D02*
D03*
Y8260D02*
D03*
Y9530D02*
D03*
X11765Y6990D02*
D03*
Y8260D02*
D03*
Y9530D02*
D03*
X13035Y6990D02*
D03*
Y8260D02*
D03*
Y9530D02*
D03*
D11*
X6340Y10800D02*
D03*
X12400D02*
D03*
D12*
X7356Y5720D02*
D03*
X5324D02*
D03*
X13416D02*
D03*
X11384D02*
D03*
D13*
X5490Y11910D02*
D03*
X7190D02*
D03*
X6340Y12110D02*
D03*
Y4210D02*
D03*
X7190Y4210D02*
D03*
X5490D02*
D03*
X11550Y3510D02*
D03*
X13250D02*
D03*
X12400Y3510D02*
D03*
Y12910D02*
D03*
X13250Y12710D02*
D03*
X11550D02*
D03*
M02*
