G04 Layer_Physical_Order=1*
G04 Layer_Color=255*
%FSLAX43Y43*%
%MOMM*%
G71*
G01*
G75*
%ADD10C,1.150*%
%ADD11C,1.250*%
%ADD12C,1.050*%
G36*
X3483Y-699D02*
Y-798D01*
X3444Y-992D01*
X3368Y-1176D01*
X3258Y-1340D01*
X3118Y-1480D01*
X2954Y-1591D01*
X2770Y-1666D01*
X2576Y-1705D01*
X2021D01*
Y-1310D01*
X2021Y-1299D01*
X2019Y-1278D01*
X2015Y-1257D01*
X2009Y-1237D01*
X2005Y-1227D01*
X1987Y-1182D01*
X1968Y-1088D01*
X1963Y-992D01*
X1975Y-897D01*
X1989Y-851D01*
X1997Y-824D01*
X2008Y-771D01*
X2016Y-717D01*
X2020Y-662D01*
X2021Y-635D01*
X2021D01*
Y-110D01*
X3483D01*
Y-699D01*
D02*
G37*
G36*
X-2065Y635D02*
X-2064Y589D01*
X-2053Y497D01*
X-2032Y408D01*
X-2000Y321D01*
X-1981Y280D01*
X-1981Y280D01*
X-1948Y214D01*
X-1915Y73D01*
Y-73D01*
X-1948Y-214D01*
X-1981Y-280D01*
X-2000Y-321D01*
X-2032Y-408D01*
X-2053Y-497D01*
X-2064Y-589D01*
X-2065Y-635D01*
Y-1326D01*
X-2852Y-871D01*
X-2967Y-805D01*
X-3155Y-618D01*
X-3287Y-388D01*
X-3355Y-132D01*
Y132D01*
X-3287Y388D01*
X-3155Y618D01*
X-2967Y805D01*
X-2852Y871D01*
X-2065Y1326D01*
Y635D01*
D02*
G37*
G36*
X525Y-1705D02*
X-525D01*
Y-635D01*
X525D01*
Y-1705D01*
D02*
G37*
G36*
X1795Y-655D02*
X1792Y-696D01*
X1786Y-736D01*
X1776Y-776D01*
X1773Y-787D01*
X1756Y-851D01*
X1740Y-983D01*
X1745Y-1116D01*
X1773Y-1247D01*
X1795Y-1310D01*
Y-1705D01*
X745D01*
Y-635D01*
X1795D01*
Y-655D01*
D02*
G37*
G36*
X-745Y-1705D02*
X-1140Y-1705D01*
X-1206D01*
X-1336Y-1688D01*
X-1464Y-1654D01*
X-1586Y-1603D01*
X-1643Y-1570D01*
X-1795Y-1482D01*
Y-635D01*
X-745D01*
Y-1705D01*
D02*
G37*
G36*
X525Y635D02*
X-525D01*
Y1705D01*
X525D01*
Y635D01*
D02*
G37*
G36*
X1795Y1310D02*
X1773Y1247D01*
X1745Y1116D01*
X1740Y983D01*
X1756Y851D01*
X1773Y787D01*
X1770Y795D01*
X1773Y786D01*
X1773Y786D01*
Y786D01*
X1773Y786D01*
X1773Y787D01*
X1776Y776D01*
X1786Y736D01*
X1792Y696D01*
X1795Y655D01*
Y635D01*
X745D01*
Y1705D01*
X1795D01*
Y1310D01*
D02*
G37*
G36*
X2770Y1666D02*
X2954Y1590D01*
X3118Y1480D01*
X3258Y1340D01*
X3368Y1176D01*
X3444Y992D01*
X3483Y798D01*
Y699D01*
Y110D01*
X2021D01*
Y635D01*
X2020Y662D01*
X2016Y717D01*
X2008Y771D01*
X1997Y824D01*
X1989Y851D01*
X1989Y851D01*
X1975Y897D01*
X1963Y992D01*
X1968Y1088D01*
X1987Y1182D01*
X2005Y1227D01*
Y1227D01*
X2009Y1237D01*
X2015Y1257D01*
X2019Y1278D01*
X2021Y1299D01*
X2021Y1310D01*
Y1705D01*
X2576D01*
X2770Y1666D01*
D02*
G37*
G36*
X-745Y635D02*
X-1795D01*
Y1482D01*
X-1643Y1570D01*
X-1643D01*
X-1586Y1603D01*
X-1464Y1654D01*
X-1336Y1688D01*
X-1206Y1705D01*
X-745D01*
Y635D01*
D02*
G37*
%LPC*%
G36*
X1773Y-786D02*
X1770Y-795D01*
X1773Y-787D01*
X1773Y-786D01*
D02*
G37*
%LPD*%
D10*
X2540Y-1016D02*
D03*
Y1016D02*
D03*
D11*
X-2540Y0D02*
D03*
D12*
X-1270Y635D02*
D03*
X0D02*
D03*
X1270D02*
D03*
X-1270Y-635D02*
D03*
X0D02*
D03*
X1270D02*
D03*
M02*
