G04 Layer_Color=8388736*
%FSLAX43Y43*%
%MOMM*%
G71*
G01*
G75*
%ADD13C,1.290*%
%ADD14C,1.390*%
%ADD15C,1.190*%
G36*
X3493Y-61D02*
X3502Y-64D01*
X3511Y-68D01*
X3519Y-74D01*
X3525Y-82D01*
X3529Y-91D01*
X3532Y-100D01*
X3533Y-110D01*
Y-699D01*
Y-798D01*
X3532Y-808D01*
X3494Y-1002D01*
X3491Y-1012D01*
X3491Y-1012D01*
X3415Y-1195D01*
X3410Y-1203D01*
X3410Y-1203D01*
X3300Y-1368D01*
X3294Y-1376D01*
X3154Y-1516D01*
X3146Y-1522D01*
X3146Y-1522D01*
X2981Y-1632D01*
X2981Y-1632D01*
X2976Y-1635D01*
X2973Y-1637D01*
X2973Y-1637D01*
X2790Y-1713D01*
X2780Y-1716D01*
X2586Y-1754D01*
X2576Y-1755D01*
X2021D01*
X2011Y-1754D01*
X2002Y-1751D01*
X1993Y-1747D01*
X1985Y-1741D01*
X1979Y-1733D01*
X1974Y-1724D01*
X1972Y-1715D01*
X1971Y-1705D01*
Y-1311D01*
X1970Y-1302D01*
X1969Y-1285D01*
X1966Y-1269D01*
X1961Y-1253D01*
X1958Y-1245D01*
X1941Y-1201D01*
X1940Y-1197D01*
X1938Y-1193D01*
X1918Y-1099D01*
X1918Y-1095D01*
X1917Y-1090D01*
X1913Y-994D01*
X1914Y-990D01*
X1914Y-986D01*
X1926Y-891D01*
X1927Y-886D01*
X1927Y-882D01*
X1941Y-837D01*
X1948Y-812D01*
X1959Y-762D01*
X1966Y-711D01*
X1970Y-660D01*
X1971Y-634D01*
Y-110D01*
X1972Y-100D01*
X1974Y-91D01*
X1979Y-82D01*
X1985Y-74D01*
X1993Y-68D01*
X2002Y-64D01*
X2011Y-61D01*
X2021Y-60D01*
X3483D01*
X3493Y-61D01*
D02*
G37*
G36*
X-2063Y1377D02*
X-2062Y1377D01*
X-2058Y1376D01*
X-2055Y1376D01*
X-2054Y1375D01*
X-2052Y1375D01*
X-2049Y1374D01*
X-2046Y1373D01*
X-2044Y1372D01*
X-2043Y1372D01*
X-2040Y1370D01*
X-2037Y1368D01*
X-2036Y1367D01*
X-2034Y1366D01*
X-2032Y1364D01*
X-2029Y1362D01*
X-2028Y1361D01*
X-2027Y1360D01*
X-2025Y1357D01*
X-2023Y1354D01*
X-2022Y1353D01*
X-2021Y1352D01*
X-2020Y1349D01*
X-2018Y1346D01*
X-2018Y1344D01*
X-2017Y1343D01*
X-2017Y1339D01*
X-2016Y1336D01*
X-2015Y1335D01*
X-2015Y1333D01*
X-2015Y1330D01*
X-2015Y1326D01*
Y636D01*
X-2013Y593D01*
X-2003Y506D01*
X-1984Y422D01*
X-1954Y340D01*
X-1936Y301D01*
X-1903Y237D01*
X-1903Y236D01*
X-1903Y235D01*
X-1901Y231D01*
X-1900Y228D01*
X-1900Y227D01*
X-1900Y226D01*
X-1866Y84D01*
X-1866Y83D01*
X-1866Y83D01*
X-1865Y79D01*
X-1865Y75D01*
X-1865Y74D01*
X-1865Y73D01*
Y-73D01*
X-1865Y-74D01*
X-1865Y-75D01*
X-1865Y-79D01*
X-1866Y-83D01*
X-1866Y-83D01*
X-1866Y-84D01*
X-1900Y-226D01*
X-1900Y-227D01*
X-1900Y-228D01*
X-1901Y-231D01*
X-1903Y-235D01*
X-1903Y-236D01*
X-1903Y-237D01*
X-1936Y-301D01*
X-1954Y-340D01*
X-1984Y-422D01*
X-2003Y-506D01*
X-2013Y-593D01*
X-2015Y-636D01*
Y-1326D01*
X-2015Y-1330D01*
X-2015Y-1333D01*
X-2015Y-1335D01*
X-2016Y-1336D01*
X-2017Y-1339D01*
X-2017Y-1343D01*
X-2018Y-1344D01*
X-2018Y-1346D01*
X-2020Y-1349D01*
X-2021Y-1352D01*
X-2022Y-1353D01*
X-2023Y-1354D01*
X-2025Y-1357D01*
X-2027Y-1360D01*
X-2028Y-1361D01*
X-2029Y-1362D01*
X-2032Y-1364D01*
X-2034Y-1366D01*
X-2036Y-1367D01*
X-2037Y-1368D01*
X-2040Y-1370D01*
X-2043Y-1372D01*
X-2044Y-1372D01*
X-2046Y-1373D01*
X-2049Y-1374D01*
X-2052Y-1375D01*
X-2054Y-1375D01*
X-2055Y-1376D01*
X-2058Y-1376D01*
X-2062Y-1377D01*
X-2063Y-1377D01*
X-2065Y-1377D01*
X-2068Y-1376D01*
X-2071Y-1376D01*
X-2073Y-1376D01*
X-2075Y-1376D01*
X-2078Y-1375D01*
X-2081Y-1374D01*
X-2083Y-1373D01*
X-2084Y-1373D01*
X-2087Y-1371D01*
X-2090Y-1370D01*
X-2878Y-915D01*
X-2878Y-915D01*
X-2992Y-849D01*
X-2994Y-848D01*
X-2995Y-847D01*
X-2998Y-845D01*
X-3000Y-843D01*
X-3001Y-842D01*
X-3003Y-841D01*
X-3190Y-653D01*
X-3191Y-652D01*
X-3192Y-651D01*
X-3194Y-648D01*
X-3196Y-646D01*
X-3197Y-644D01*
X-3198Y-643D01*
X-3330Y-413D01*
X-3331Y-412D01*
X-3332Y-411D01*
X-3333Y-407D01*
X-3335Y-404D01*
X-3335Y-403D01*
X-3335Y-401D01*
X-3404Y-145D01*
X-3404Y-144D01*
X-3405Y-142D01*
X-3405Y-139D01*
X-3406Y-136D01*
X-3406Y-134D01*
X-3406Y-132D01*
Y132D01*
X-3406Y134D01*
X-3406Y136D01*
X-3405Y139D01*
X-3405Y142D01*
X-3404Y144D01*
X-3404Y145D01*
X-3335Y401D01*
X-3335Y403D01*
X-3335Y404D01*
X-3333Y407D01*
X-3332Y411D01*
X-3331Y412D01*
X-3330Y413D01*
X-3198Y643D01*
X-3197Y644D01*
X-3196Y646D01*
X-3194Y648D01*
X-3192Y651D01*
X-3191Y652D01*
X-3190Y653D01*
X-3003Y841D01*
X-3001Y842D01*
X-3000Y843D01*
X-2998Y845D01*
X-2995Y847D01*
X-2994Y848D01*
X-2992Y849D01*
X-2878Y915D01*
X-2878Y915D01*
X-2090Y1370D01*
X-2087Y1371D01*
X-2084Y1373D01*
X-2083Y1373D01*
X-2081Y1374D01*
X-2078Y1375D01*
X-2075Y1376D01*
X-2073Y1376D01*
X-2071Y1376D01*
X-2068Y1376D01*
X-2065Y1377D01*
X-2063Y1377D01*
D02*
G37*
G36*
X2586Y1754D02*
X2780Y1716D01*
X2790Y1713D01*
X2790Y1713D01*
X2973Y1637D01*
X2981Y1632D01*
X2981Y1632D01*
X3146Y1522D01*
X3154Y1516D01*
X3294Y1376D01*
X3300Y1368D01*
X3300Y1368D01*
X3410Y1203D01*
X3410Y1203D01*
X3413Y1198D01*
X3415Y1195D01*
X3415Y1195D01*
X3491Y1012D01*
X3491Y1012D01*
X3494Y1002D01*
X3532Y808D01*
X3533Y798D01*
Y699D01*
Y110D01*
X3532Y100D01*
X3529Y91D01*
X3525Y82D01*
X3519Y74D01*
X3511Y68D01*
X3502Y64D01*
X3493Y61D01*
X3483Y60D01*
X2021D01*
X2011Y61D01*
X2002Y64D01*
X1993Y68D01*
X1985Y74D01*
X1979Y82D01*
X1974Y91D01*
X1972Y100D01*
X1971Y110D01*
Y635D01*
X1970Y660D01*
X1966Y711D01*
X1959Y762D01*
X1948Y812D01*
X1941Y837D01*
X1927Y882D01*
X1927Y886D01*
X1926Y891D01*
X1914Y986D01*
X1914Y990D01*
X1913Y994D01*
X1917Y1090D01*
X1918Y1095D01*
X1918Y1099D01*
X1938Y1193D01*
X1940Y1197D01*
X1941Y1201D01*
X1958Y1245D01*
X1961Y1253D01*
X1966Y1269D01*
X1969Y1285D01*
X1970Y1302D01*
X1971Y1311D01*
Y1705D01*
X1972Y1715D01*
X1974Y1724D01*
X1979Y1733D01*
X1985Y1741D01*
X1993Y1747D01*
X2002Y1751D01*
X2011Y1754D01*
X2021Y1755D01*
X2576D01*
X2586Y1754D01*
D02*
G37*
D13*
X2540Y-1016D02*
D03*
Y1016D02*
D03*
D14*
X-2540Y0D02*
D03*
D15*
X-1270Y635D02*
D03*
X0D02*
D03*
X1270D02*
D03*
X-1270Y-635D02*
D03*
X0D02*
D03*
X1270D02*
D03*
M02*
